<?xml version="1.0" encoding="UTF-8"?>
<svg width="480px" height="205px" viewBox="0 0 480 205" version="1.1" xmlns="http://www.w3.org/2000/svg" xmlns:xlink="http://www.w3.org/1999/xlink">
    <title>kook 标志</title>
    <g id="页面-1" stroke="none" stroke-width="1" fill="none" fill-rule="evenodd">
        <g id="kook-标志" transform="translate(0.000000, 0.000000)">
            <polygon id="Fill-3630" fill="#000000" points="466.646 0 30.301 0 0 143.461 13.467 168.288 315.34 168.288 335.19 204.887 355.111 204.887 362.848 168.288 449.645 168.288 480 24.619"></polygon>
            <path d="M233.3084,17.0519 L240.8274,30.9219 L221.9174,120.4639 L209.2964,134.9019 L131.0474,134.9019 L123.4374,120.8729 L142.3934,31.1379 L154.7064,17.0519 L233.3084,17.0519 Z M338.6687,17.0519 L346.1877,30.9219 L327.2777,120.4639 L314.6567,134.9019 L236.4077,134.9019 L228.7977,120.8729 L247.7537,31.1379 L260.0667,17.0519 L338.6687,17.0519 Z M80.7795,17.0523 L74.1995,48.1973 L101.4285,17.0523 L138.9255,17.0523 L135.4485,33.5193 L94.2965,80.6063 L116.7515,122.0193 L114.0315,134.8993 L79.7185,134.8993 L62.5655,103.2743 L55.8855,134.8993 L18.1745,134.8993 L43.0685,17.0523 L80.7795,17.0523 Z M394.7691,17.0523 L388.1901,48.1973 L415.4181,17.0523 L452.9151,17.0523 L449.4381,33.5193 L408.2861,80.6063 L430.7411,122.0193 L428.0211,134.8993 L393.7081,134.8993 L376.5551,103.2743 L369.8751,134.8993 L332.1641,134.8993 L357.0581,17.0523 L394.7691,17.0523 Z M194.1854,55.8249 L178.5944,55.8249 L170.0794,96.1299 L185.6624,96.1299 L194.1854,55.8249 Z M299.5457,55.8249 L283.9547,55.8249 L275.4397,96.1299 L291.0227,96.1299 L299.5457,55.8249 Z" id="形状结合" fill="#FFFFFF"></path>
        </g>
    </g>
</svg>